<svg xmlns="http://www.w3.org/2000/svg" viewBox="0 0 133.47 166.21"><defs><style>.a{fill:#fff;}</style></defs><path class="a" d="M174.23,183.46H92.53c-3.57,0-7.13,0-10.7,0a17.73,17.73,0,0,1-1.79-.12l2,.27a14.52,14.52,0,0,1-3.24-.88l1.79.76a14.2,14.2,0,0,1-2-1.08c-1.54-1,1.1,1,.19.2-.28-.26-.57-.5-.84-.78s-.52-.56-.78-.84c-.85-1,1.09,1.69.29.33a18.9,18.9,0,0,1-1.16-2.18l.75,1.79a14.52,14.52,0,0,1-.88-3.24l.27,2a37.07,37.07,0,0,1-.11-4.47V76.62c0-4.55,0-9.1,0-13.64a16.08,16.08,0,0,1,.11-1.84l-.27,2A14.52,14.52,0,0,1,77,59.9l-.75,1.79a13.31,13.31,0,0,1,1.07-2c1-1.53-1,1.11-.2.2.26-.28.51-.57.78-.84s.56-.52.84-.78c1-.86-1.69,1.09-.33.29a19.84,19.84,0,0,1,2.18-1.17l-1.79.76A14.52,14.52,0,0,1,82,57.22l-2,.27a87.24,87.24,0,0,1,10.48-.12H163.3c3.62,0,7.24,0,10.86,0a17.93,17.93,0,0,1,1.8.12l-2-.27a14.52,14.52,0,0,1,3.24.88l-1.79-.76a14.2,14.2,0,0,1,2,1.08c1.54,1-1.1-1-.19-.2.28.26.57.5.84.78s.52.56.78.84c.85.95-1.09-1.69-.29-.33a18.9,18.9,0,0,1,1.16,2.18L179,59.9a14.52,14.52,0,0,1,.88,3.24l-.27-2a37.07,37.07,0,0,1,.11,4.47v98.6c0,4.55.05,9.1,0,13.64a16.08,16.08,0,0,1-.11,1.84l.27-2a14.52,14.52,0,0,1-.88,3.24l.75-1.79a13.31,13.31,0,0,1-1.07,2.05c-1,1.53,1-1.11.2-.2-.26.28-.51.57-.78.84s-.56.52-.84.78c-1,.86,1.69-1.09.33-.29a19.84,19.84,0,0,1-2.18,1.17l1.79-.76a14.52,14.52,0,0,1-3.24.88l2-.27a16.57,16.57,0,0,1-1.73.12c-3.92,0-7.68,3.41-7.5,7.5a7.63,7.63,0,0,0,7.5,7.5,20.8,20.8,0,0,0,20.5-20.5c0-1,0-2.09,0-3.13V67.56c0-1.49,0-3,0-4.48A20.7,20.7,0,0,0,182.09,44c-5.67-2.39-12.57-1.64-18.62-1.64H82.68a21.15,21.15,0,0,0-15.74,6.37,21.52,21.52,0,0,0-5.67,15V176.27c0,.5,0,1,0,1.51A21.73,21.73,0,0,0,63.42,187c3.26,7.12,11,11.41,18.63,11.44h92.18c3.93,0,7.69-3.45,7.5-7.5A7.62,7.62,0,0,0,174.23,183.46Z" transform="translate(-61.26 -32.25)"/><path class="a" d="M87.57,37.26V62.49a5,5,0,0,0,10,0V37.26a5,5,0,1,0-10,0Z" transform="translate(-61.26 -32.25)"/><path class="a" d="M123,37.26V62.49a5,5,0,0,0,10,0V37.26a5,5,0,1,0-10,0Z" transform="translate(-61.26 -32.25)"/><path class="a" d="M158.13,37.26V62.49a5,5,0,0,0,10,0V37.26a5,5,0,1,0-10,0Z" transform="translate(-61.26 -32.25)"/><path class="a" d="M91.17,97.89h72a5,5,0,0,0,0-10h-72a5,5,0,0,0,0,10Z" transform="translate(-61.26 -32.25)"/><path class="a" d="M91.17,130.09h48.26a5,5,0,0,0,0-10H91.17a5,5,0,1,0,0,10Z" transform="translate(-61.26 -32.25)"/><path class="a" d="M91.17,162.28h66a5,5,0,0,0,0-10h-66a5,5,0,1,0,0,10Z" transform="translate(-61.26 -32.25)"/></svg>