<svg xmlns="http://www.w3.org/2000/svg" viewBox="0 0 157.75 166.41">
  <defs>
    <style>
      .a {
        fill: #e0e0e0;
      }
    </style>
  </defs>
  <path class="a" d="M186.36,191h-103c-4.54,0-9.09,0-13.64,0a16,16,0,0,1-1.83-.11l2,.27a14.52,14.52,0,0,1-3.24-.88l1.79.75a13.21,13.21,0,0,1-2-1.07c-1.53-1,1.1,1,.2.2-.29-.26-.58-.51-.85-.78s-.52-.56-.77-.85c-.86-.95,1.08,1.69.28.34a19.77,19.77,0,0,1-1.16-2.18l.75,1.79a14,14,0,0,1-.87-3.24l.26,2a39,39,0,0,1-.11-4.46V84.2c0-4.54,0-9.09,0-13.64a16,16,0,0,1,.11-1.83l-.26,2a14,14,0,0,1,.87-3.24l-.75,1.79a13.21,13.21,0,0,1,1.07-2c1-1.53-1,1.1-.19.2.25-.29.5-.58.77-.85s.56-.52.85-.78c1-.85-1.69,1.09-.34.29a19.77,19.77,0,0,1,2.18-1.16l-1.79.75a14.52,14.52,0,0,1,3.24-.88l-2,.27A37.68,37.68,0,0,1,72.42,65h100c4.6,0,9.21,0,13.81,0a16,16,0,0,1,1.83.11l-2-.27a14.52,14.52,0,0,1,3.24.88l-1.79-.75a13.21,13.21,0,0,1,2,1.07c1.53,1-1.1-1-.2-.2.29.26.58.51.85.78s.52.56.77.85c.86.95-1.08-1.69-.28-.34a19.77,19.77,0,0,1,1.16,2.18l-.75-1.79a14,14,0,0,1,.87,3.24l-.26-2a39,39,0,0,1,.11,4.46V171.8c0,4.54,0,9.09,0,13.64a16,16,0,0,1-.11,1.83l.26-2a14,14,0,0,1-.87,3.24l.75-1.79a13.21,13.21,0,0,1-1.07,2c-1,1.53,1-1.1.19-.2-.25.29-.5.58-.77.85s-.56.52-.85.78c-.95.85,1.69-1.09.34-.29a19.77,19.77,0,0,1-2.18,1.16l1.79-.75a14.52,14.52,0,0,1-3.24.88l2-.27a16.74,16.74,0,0,1-1.73.11c-3.92.06-7.68,3.41-7.5,7.5a7.62,7.62,0,0,0,7.5,7.5,20.8,20.8,0,0,0,20.5-20.54c0-1.48,0-3,0-4.43V86.47c0-5.3,0-10.6,0-15.89a20.49,20.49,0,0,0-3.18-11.06,21.08,21.08,0,0,0-15.59-9.45,44.47,44.47,0,0,0-4.9-.11H70.53c-6.24,0-12.45,2.28-16.46,7.24a21.2,21.2,0,0,0-4.93,13.32c0,.46,0,.93,0,1.4v112c0,4.53.74,9,3.37,12.86A21.18,21.18,0,0,0,70.39,206h116c3.92,0,7.68-3.45,7.5-7.5A7.63,7.63,0,0,0,186.36,191Z" transform="translate(-49.14 -39.63)"/>
  <g>
    <path class="a" d="M87.57,44.64V69.87a5,5,0,0,0,10,0V44.64a5,5,0,1,0-10,0Z" transform="translate(-49.14 -39.63)"/>
    <path class="a" d="M123,44.64V69.87a5,5,0,0,0,10,0V44.64a5,5,0,1,0-10,0Z" transform="translate(-49.14 -39.63)"/>
    <path class="a" d="M158.13,44.64V69.87a5,5,0,0,0,10,0V44.64a5,5,0,1,0-10,0Z" transform="translate(-49.14 -39.63)"/>
  </g>
  <g>
    <path class="a" d="M91.17,105.27h72a5,5,0,0,0,0-10h-72a5,5,0,0,0,0,10Z" transform="translate(-49.14 -39.63)"/>
    <path class="a" d="M91.17,137.47h48.26a5,5,0,0,0,0-10H91.17a5,5,0,1,0,0,10Z" transform="translate(-49.14 -39.63)"/>
    <path class="a" d="M91.17,169.66h66a5,5,0,0,0,0-10h-66a5,5,0,1,0,0,10Z" transform="translate(-49.14 -39.63)"/>
  </g>
</svg>
