<svg xmlns="http://www.w3.org/2000/svg" viewBox="0 0 12.06 14.7"><defs><style>.a{fill:none;stroke:#fff;stroke-miterlimit:10;stroke-width:1.25px;}.b{fill:#fff;}</style></defs><rect class="a" x="0.63" y="1.65" width="10.81" height="12.43" rx="1.56"/><path class="b" d="M5.94,2.94V.76a.63.63,0,0,0-1.25,0V2.94a.63.63,0,0,0,.62.63.65.65,0,0,0,.63-.63Z" transform="translate(-1.97 -0.14)"/><path class="b" d="M8.62,2.94V.76A.62.62,0,0,0,8,.14a.62.62,0,0,0-.62.62V2.94A.63.63,0,0,0,8,3.57a.64.64,0,0,0,.62-.63Z" transform="translate(-1.97 -0.14)"/><path class="b" d="M11.35,2.94V.76a.63.63,0,0,0-1.25,0V2.94a.63.63,0,0,0,.62.63.65.65,0,0,0,.63-.63Z" transform="translate(-1.97 -0.14)"/><path class="b" d="M4.88,6.5H11a.63.63,0,0,0,0-1.25H4.88a.63.63,0,0,0,0,1.25Z" transform="translate(-1.97 -0.14)"/><path class="b" d="M4.88,8.8H8.52a.63.63,0,0,0,.62-.63.62.62,0,0,0-.62-.62H4.88a.63.63,0,0,0-.63.62.65.65,0,0,0,.63.63Z" transform="translate(-1.97 -0.14)"/><path class="b" d="M4.88,11.1H10.1a.63.63,0,0,0,0-1.25H4.88a.63.63,0,0,0,0,1.25Z" transform="translate(-1.97 -0.14)"/></svg>